<svg xmlns="http://www.w3.org/2000/svg" width="81.69" height="63" viewBox="0 0 81.69 63"><g transform="translate(-245.155 -59)"><g transform="translate(256 59)" fill="#f2f2f2" stroke="#303030" stroke-width="2"><circle cx="31.5" cy="31.5" r="31.5" stroke="none"/><circle cx="31.5" cy="31.5" r="30.5" fill="none"/></g><line x2="81" y2="4" transform="translate(245.5 88.5)" fill="none" stroke="#f2f2f2" stroke-width="14"/><path d="M7.773.77a1,1,0,0,1,1.454,0l6.18,6.544A1,1,0,0,1,14.68,9H2.32a1,1,0,0,1-.727-1.687Z" transform="translate(310.755 90.708) rotate(19)" fill="#303030"/><path d="M7.773.77a1,1,0,0,1,1.454,0l6.18,6.544A1,1,0,0,1,14.68,9H2.32a1,1,0,0,1-.727-1.687Z" transform="translate(264.898 88.752) rotate(-161)" fill="#303030"/></g></svg>