<svg xmlns="http://www.w3.org/2000/svg" width="72.5" height="63" viewBox="0 0 72.5 63"><g transform="translate(-105.5 -59)"><g transform="translate(2278.5 659)" fill="#fff"><path d="M -2101.500244140625 -538.0003051757812 L -2105.49951171875 -538.0003051757812 L -2105.49951171875 -599.0003051757812 L -2101.500244140625 -599.0003051757812 L -2101.500244140625 -538.0003051757812 Z M -2111.5 -538.0003051757812 L -2115.500244140625 -538.0003051757812 L -2115.500244140625 -599.0003051757812 L -2111.5 -599.0003051757812 L -2111.5 -538.0003051757812 Z M -2171.999755859375 -539.2432250976562 L -2171.999755859375 -597.7565307617188 L -2121.980224609375 -568.5003051757812 L -2171.999755859375 -539.2432250976562 Z" stroke="none"/><path d="M -2102.500244140625 -539.0003051757812 L -2102.500244140625 -598.0003051757812 L -2104.49951171875 -598.0003051757812 L -2104.49951171875 -539.0003051757812 L -2102.500244140625 -539.0003051757812 M -2112.5 -539.0003051757812 L -2112.5 -598.0003051757812 L -2114.500244140625 -598.0003051757812 L -2114.500244140625 -539.0003051757812 L -2112.5 -539.0003051757812 M -2170.999755859375 -540.9866333007812 L -2123.9609375 -568.5003051757812 L -2170.999755859375 -596.01318359375 L -2170.999755859375 -540.9866333007812 M -2100.500244140625 -537.0003051757812 L -2106.49951171875 -537.0003051757812 L -2106.49951171875 -600.0003051757812 L -2100.500244140625 -600.0003051757812 L -2100.500244140625 -537.0003051757812 Z M -2110.5 -537.0003051757812 L -2116.500244140625 -537.0003051757812 L -2116.500244140625 -600.0003051757812 L -2110.5 -600.0003051757812 L -2110.5 -537.0003051757812 Z M -2172.999755859375 -537.4998168945312 L -2172.999755859375 -599.4999389648438 L -2119.99951171875 -568.5003051757812 L -2172.999755859375 -537.4998168945312 Z" stroke="none" fill="#303030"/></g></g></svg>